 <svg
        width="136"
        height="34"
        viewBox="0 0 136 34"
        fill="none"
        xmlns="http://www.w3.org/2000/svg"
      >
        <path
          d="M6.568 23.12C5.976 23.12 5.552 22.992 5.296 22.736C5.04 22.464 4.912 21.96 4.912 21.224C4.912 20.728 4.96 20.096 5.056 19.328C5.168 18.544 5.344 17.472 5.584 16.112C6 13.6 6.328 11.424 6.568 9.584C6.712 8.432 6.784 7.472 6.784 6.704C6.784 5.984 6.52 5.624 5.992 5.624C5.576 5.624 5.072 5.84 4.48 6.272C3.904 6.688 3.264 7.36 2.56 8.288C2.336 8.592 2.088 8.744 1.816 8.744C1.592 8.744 1.392 8.64 1.216 8.432C1.056 8.208 0.976 7.96 0.976 7.688C0.976 7.432 1.024 7.176 1.12 6.92C1.232 6.648 1.408 6.344 1.648 6.008C2.416 4.936 3.272 4.112 4.216 3.536C5.16 2.944 6.104 2.648 7.048 2.648C7.928 2.648 8.6 2.928 9.064 3.488C9.544 4.048 9.784 4.864 9.784 5.936C9.784 6.368 9.744 6.88 9.664 7.472C9.584 8.048 9.512 8.52 9.448 8.888C9.384 9.256 9.336 9.512 9.304 9.656C10.216 7.048 11.24 5.232 12.376 4.208C13.512 3.168 14.76 2.648 16.12 2.648C17.16 2.648 17.976 3.016 18.568 3.752C19.176 4.488 19.48 5.528 19.48 6.872C19.48 7.4 19.408 8.056 19.264 8.84C20.064 6.632 21 5.048 22.072 4.088C23.144 3.128 24.376 2.648 25.768 2.648C26.888 2.648 27.744 3.008 28.336 3.728C28.944 4.448 29.248 5.456 29.248 6.752C29.248 7.456 29.144 8.312 28.936 9.32L27.472 16.184C27.312 16.984 27.232 17.672 27.232 18.248C27.232 18.92 27.384 19.424 27.688 19.76C28.008 20.096 28.448 20.264 29.008 20.264C29.536 20.264 30.048 20.088 30.544 19.736C31.056 19.384 31.656 18.8 32.344 17.984C32.536 17.76 32.752 17.648 32.992 17.648C33.2 17.648 33.36 17.744 33.472 17.936C33.6 18.128 33.664 18.392 33.664 18.728C33.664 19.352 33.512 19.848 33.208 20.216C32.376 21.224 31.552 21.96 30.736 22.424C29.92 22.888 29.064 23.12 28.168 23.12C26.808 23.12 25.744 22.72 24.976 21.92C24.208 21.104 23.824 20.016 23.824 18.656C23.824 17.712 24.016 16.344 24.4 14.552L25.36 10.16C25.392 10.016 25.448 9.76 25.528 9.392C25.608 9.024 25.672 8.68 25.72 8.36C25.768 8.024 25.792 7.696 25.792 7.376C25.792 6.816 25.68 6.4 25.456 6.128C25.248 5.84 24.944 5.696 24.544 5.696C23.792 5.696 23 6.184 22.168 7.16C21.352 8.12 20.568 9.72 19.816 11.96C19.08 14.2 18.48 17.112 18.016 20.696C17.904 21.656 17.704 22.304 17.416 22.64C17.144 22.96 16.696 23.12 16.072 23.12C15.528 23.12 15.128 22.992 14.872 22.736C14.632 22.48 14.512 22 14.512 21.296C14.512 20.64 14.6 19.784 14.776 18.728C14.952 17.656 15.176 16.4 15.448 14.96C16.184 11.088 16.552 8.592 16.552 7.472C16.552 6.864 16.432 6.416 16.192 6.128C15.968 5.84 15.624 5.696 15.16 5.696C14.376 5.696 13.568 6.144 12.736 7.04C11.904 7.92 11.088 9.496 10.288 11.768C9.504 14.024 8.848 17.08 8.32 20.936C8.208 21.752 8.04 22.32 7.816 22.64C7.608 22.96 7.192 23.12 6.568 23.12ZM40.1301 11.816C40.4981 11.816 40.7541 11.864 40.8981 11.96C41.0421 12.056 41.1141 12.216 41.1141 12.44C41.1141 12.824 40.9061 14.192 40.4901 16.544C40.1221 18.8 39.9061 20.136 39.8421 20.552C39.2501 24.664 38.4341 27.92 37.3941 30.32C36.3541 32.72 34.9701 33.92 33.2421 33.92C32.4261 33.92 31.7621 33.664 31.2501 33.152C30.7381 32.656 30.4821 32 30.4821 31.184C30.4821 30.432 30.6501 29.664 30.9861 28.88C31.3381 28.096 31.9781 27.192 32.9061 26.168C33.8501 25.16 35.1781 24 36.8901 22.688L36.9621 22.136C37.0741 21.544 37.2021 20.696 37.3461 19.592C37.0261 20.744 36.5781 21.624 36.0021 22.232C35.4261 22.824 34.8181 23.12 34.1781 23.12C33.4581 23.12 32.8661 22.792 32.4021 22.136C31.9541 21.464 31.7301 20.632 31.7301 19.64C31.7301 18.44 31.8101 17.344 31.9701 16.352C32.1301 15.344 32.3941 14.28 32.7621 13.16C32.9221 12.68 33.1461 12.336 33.4341 12.128C33.7221 11.92 34.1781 11.816 34.8021 11.816C35.1541 11.816 35.3941 11.872 35.5221 11.984C35.6661 12.096 35.7381 12.264 35.7381 12.488C35.7381 12.616 35.6501 13.048 35.4741 13.784C35.3141 14.376 35.1861 14.912 35.0901 15.392C34.9621 16.048 34.8501 16.68 34.7541 17.288C34.6581 17.88 34.6101 18.368 34.6101 18.752C34.6101 19.36 34.7781 19.664 35.1141 19.664C35.3541 19.664 35.6501 19.424 36.0021 18.944C36.3701 18.464 36.7541 17.736 37.1541 16.76C37.5701 15.784 37.9701 14.584 38.3541 13.16C38.4821 12.68 38.6741 12.336 38.9301 12.128C39.2021 11.92 39.6021 11.816 40.1301 11.816ZM33.5061 31.592C33.9061 31.592 34.3541 31.128 34.8501 30.2C35.3461 29.272 35.8421 27.728 36.3381 25.568C35.1061 26.608 34.2101 27.552 33.6501 28.4C33.1061 29.264 32.8341 30.016 32.8341 30.656C32.8341 30.928 32.8821 31.152 32.9781 31.328C33.0901 31.504 33.2661 31.592 33.5061 31.592Z"
          fill="#EC1B09"
        />
        <path
          d="M61.1114 8.696C61.1114 10.056 60.7594 11.304 60.0554 12.44C59.3514 13.576 58.3274 14.504 56.9834 15.224C55.6394 15.944 54.0394 16.368 52.1834 16.496L51.1514 22.28C50.7514 24.504 49.6634 25.616 47.8874 25.616C46.9114 25.616 46.0074 25.328 45.1754 24.752C44.3594 24.176 43.7034 23.296 43.2074 22.112C42.7114 20.928 42.4634 19.472 42.4634 17.744C42.4634 14.496 42.9834 11.744 44.0234 9.488C45.0794 7.216 46.4874 5.52 48.2474 4.4C50.0234 3.264 51.9754 2.696 54.1034 2.696C55.6074 2.696 56.8794 2.96 57.9194 3.488C58.9754 4.016 59.7674 4.736 60.2954 5.648C60.8394 6.544 61.1114 7.56 61.1114 8.696ZM52.6154 14.024C55.8954 13.608 57.5354 11.904 57.5354 8.912C57.5354 7.856 57.1834 7 56.4794 6.344C55.7914 5.672 54.7194 5.336 53.2634 5.336C51.6154 5.336 50.1754 5.856 48.9434 6.896C47.7274 7.936 46.7834 9.384 46.1114 11.24C45.4554 13.08 45.1274 15.184 45.1274 17.552C45.1274 18.544 45.2234 19.424 45.4154 20.192C45.6234 20.96 45.8794 21.56 46.1834 21.992C46.5034 22.408 46.8074 22.616 47.0954 22.616C47.4954 22.616 47.7994 22.064 48.0074 20.96L48.7994 16.424C48.1754 16.328 47.9034 16.288 47.9834 16.304C47.5034 16.224 47.1914 16.08 47.0474 15.872C46.9034 15.648 46.8314 15.368 46.8314 15.032C46.8314 14.68 46.9274 14.4 47.1194 14.192C47.3274 13.984 47.6074 13.88 47.9594 13.88C48.1194 13.88 48.2394 13.888 48.3194 13.904C48.7034 13.968 48.9994 14.008 49.2074 14.024C49.4154 12.776 49.7114 11.104 50.0954 9.008C50.1914 8.464 50.4074 8.08 50.7434 7.856C51.0954 7.616 51.5034 7.496 51.9674 7.496C52.4954 7.496 52.8714 7.6 53.0954 7.808C53.3354 8 53.4554 8.312 53.4554 8.744C53.4554 9 53.4394 9.208 53.4074 9.368L52.6154 14.024ZM72.8686 15.632C73.0766 15.632 73.2366 15.736 73.3486 15.944C73.4606 16.152 73.5166 16.416 73.5166 16.736C73.5166 17.504 73.2846 17.96 72.8206 18.104C71.8606 18.44 70.8046 18.632 69.6526 18.68C69.3486 20.024 68.7486 21.104 67.8526 21.92C66.9566 22.72 65.9406 23.12 64.8046 23.12C63.8446 23.12 63.0206 22.888 62.3326 22.424C61.6606 21.96 61.1486 21.344 60.7966 20.576C60.4446 19.808 60.2686 18.976 60.2686 18.08C60.2686 16.864 60.5006 15.784 60.9646 14.84C61.4286 13.88 62.0686 13.136 62.8846 12.608C63.7006 12.064 64.6046 11.792 65.5966 11.792C66.8126 11.792 67.7886 12.216 68.5246 13.064C69.2766 13.896 69.7166 14.928 69.8446 16.16C70.5966 16.112 71.4926 15.952 72.5326 15.68C72.6606 15.648 72.7726 15.632 72.8686 15.632ZM64.9966 20.576C65.5086 20.576 65.9486 20.368 66.3166 19.952C66.7006 19.536 66.9566 18.936 67.0846 18.152C66.5886 17.816 66.2046 17.376 65.9326 16.832C65.6766 16.288 65.5486 15.712 65.5486 15.104C65.5486 14.848 65.5726 14.592 65.6206 14.336H65.5006C64.8606 14.336 64.3246 14.648 63.8926 15.272C63.4766 15.88 63.2686 16.744 63.2686 17.864C63.2686 18.744 63.4366 19.416 63.7726 19.88C64.1246 20.344 64.5326 20.576 64.9966 20.576ZM81.1527 15.104C81.5047 15.104 81.8007 15.232 82.0407 15.488C82.2967 15.728 82.4247 16.032 82.4247 16.4C82.4247 16.608 82.3767 16.832 82.2807 17.072C82.0247 17.664 81.6647 18.16 81.2007 18.56C80.7367 18.96 80.2247 19.16 79.6647 19.16C79.2167 19.16 78.8327 19 78.5127 18.68C78.2087 18.36 78.0567 17.928 78.0567 17.384C78.0567 17.08 78.0727 16.752 78.1047 16.4C78.1367 16.144 78.1527 15.968 78.1527 15.872C78.1527 15.744 78.1207 15.648 78.0567 15.584C78.0087 15.52 77.9447 15.488 77.8647 15.488C77.6407 15.488 77.3367 15.76 76.9527 16.304C76.5687 16.832 76.1847 17.536 75.8007 18.416C75.4167 19.296 75.1047 20.224 74.8647 21.2C74.6887 21.968 74.4887 22.48 74.2647 22.736C74.0407 22.992 73.6727 23.12 73.1607 23.12C72.5527 23.12 72.1207 22.8 71.8647 22.16C71.6247 21.52 71.5047 20.496 71.5047 19.088C71.5047 17.008 71.8007 15.032 72.3927 13.16C72.5367 12.696 72.7687 12.36 73.0887 12.152C73.4247 11.928 73.8887 11.816 74.4807 11.816C74.8007 11.816 75.0247 11.856 75.1527 11.936C75.2807 12.016 75.3447 12.168 75.3447 12.392C75.3447 12.648 75.2247 13.224 74.9847 14.12C74.8247 14.76 74.6967 15.32 74.6007 15.8C74.5047 16.28 74.4247 16.872 74.3607 17.576C74.8887 16.2 75.4807 15.08 76.1367 14.216C76.7927 13.352 77.4327 12.736 78.0567 12.368C78.6807 12 79.2487 11.816 79.7607 11.816C80.2247 11.816 80.5767 11.952 80.8167 12.224C81.0727 12.48 81.2007 12.864 81.2007 13.376C81.2007 13.68 81.1127 14.256 80.9367 15.104H81.1527ZM94.0435 17.648C94.2515 17.648 94.4115 17.744 94.5235 17.936C94.6515 18.128 94.7155 18.392 94.7155 18.728C94.7155 19.368 94.5635 19.864 94.2595 20.216C93.5715 21.064 92.8195 21.76 92.0035 22.304C91.1875 22.848 90.2515 23.12 89.1955 23.12C85.9315 23.12 84.2995 20.824 84.2995 16.232C84.2995 15.528 84.3235 14.816 84.3715 14.096H83.4355C82.9555 14.096 82.6275 14.008 82.4515 13.832C82.2915 13.656 82.2115 13.376 82.2115 12.992C82.2115 12.096 82.5715 11.648 83.2915 11.648H84.6595C84.9315 9.888 85.3475 8.28 85.9075 6.824C86.4675 5.368 87.1395 4.208 87.9235 3.344C88.7235 2.48 89.5795 2.048 90.4915 2.048C91.1635 2.048 91.6915 2.344 92.0755 2.936C92.4595 3.528 92.6515 4.272 92.6515 5.168C92.6515 7.648 91.6115 9.808 89.5315 11.648H92.2195C92.4755 11.648 92.6595 11.704 92.7715 11.816C92.8835 11.928 92.9395 12.136 92.9395 12.44C92.9395 13.544 92.0355 14.096 90.2275 14.096H87.2995C87.2675 14.896 87.2515 15.52 87.2515 15.968C87.2515 17.632 87.4435 18.8 87.8275 19.472C88.2275 20.144 88.8515 20.48 89.6995 20.48C90.3875 20.48 90.9955 20.272 91.5235 19.856C92.0515 19.44 92.6755 18.816 93.3955 17.984C93.5875 17.76 93.8035 17.648 94.0435 17.648ZM89.8435 4.352C89.6035 4.352 89.3315 4.656 89.0275 5.264C88.7395 5.856 88.4595 6.688 88.1875 7.76C87.9315 8.816 87.7155 9.992 87.5395 11.288C88.4835 10.472 89.1875 9.56 89.6515 8.552C90.1315 7.528 90.3715 6.6 90.3715 5.768C90.3715 4.824 90.1955 4.352 89.8435 4.352ZM102.337 16.28C102.785 16.28 103.009 16.616 103.009 17.288C103.009 18.552 102.017 19.184 100.033 19.184C99.6494 19.184 99.0974 19.112 98.3774 18.968C98.5854 19.96 98.7534 21.064 98.8814 22.28C99.0254 23.48 99.0974 24.472 99.0974 25.256C99.0974 26.984 98.8174 28.304 98.2574 29.216C97.6974 30.128 96.9614 30.584 96.0494 30.584C94.8974 30.584 94.0734 29.768 93.5774 28.136C93.0974 26.504 92.8574 24.04 92.8574 20.744C92.8574 17.672 93.1854 14.56 93.8414 11.408C94.5134 8.24 95.4254 5.624 96.5774 3.56C97.7454 1.48 99.0254 0.439999 100.417 0.439999C101.169 0.439999 101.753 0.775999 102.169 1.448C102.601 2.12 102.817 3.024 102.817 4.16C102.817 7.92 100.569 12.016 96.0734 16.448C95.9134 18.016 95.8334 19.392 95.8334 20.576C95.8334 22.224 95.8894 23.912 96.0014 25.64C96.1134 27.384 96.2974 28.256 96.5534 28.256C97.0334 28.256 97.2734 27.424 97.2734 25.76C97.2734 24.512 97.1854 23.304 97.0094 22.136C96.8494 20.968 96.6254 19.736 96.3374 18.44C96.3214 18.232 96.3854 17.968 96.5294 17.648C96.6894 17.328 96.8814 17.048 97.1054 16.808C97.3294 16.568 97.5294 16.448 97.7054 16.448C98.0254 16.448 98.4094 16.464 98.8574 16.496C99.0014 16.512 99.1694 16.52 99.3614 16.52C100.001 16.52 100.713 16.464 101.497 16.352C101.625 16.336 101.761 16.32 101.905 16.304C102.049 16.288 102.193 16.28 102.337 16.28ZM99.9134 2.816C99.6254 2.816 99.2654 3.304 98.8334 4.28C98.4174 5.256 98.0014 6.552 97.5854 8.168C97.1694 9.768 96.8094 11.464 96.5054 13.256C97.7854 11.8 98.7694 10.288 99.4574 8.72C100.145 7.136 100.497 5.656 100.513 4.28C100.513 3.304 100.313 2.816 99.9134 2.816ZM113.439 15.632C113.647 15.632 113.807 15.736 113.919 15.944C114.031 16.152 114.087 16.416 114.087 16.736C114.087 17.504 113.855 17.96 113.391 18.104C112.431 18.44 111.375 18.632 110.223 18.68C109.919 20.024 109.319 21.104 108.423 21.92C107.527 22.72 106.511 23.12 105.375 23.12C104.415 23.12 103.591 22.888 102.903 22.424C102.231 21.96 101.719 21.344 101.367 20.576C101.015 19.808 100.839 18.976 100.839 18.08C100.839 16.864 101.071 15.784 101.535 14.84C101.999 13.88 102.639 13.136 103.455 12.608C104.271 12.064 105.175 11.792 106.167 11.792C107.383 11.792 108.359 12.216 109.095 13.064C109.847 13.896 110.287 14.928 110.415 16.16C111.167 16.112 112.063 15.952 113.103 15.68C113.231 15.648 113.343 15.632 113.439 15.632ZM105.567 20.576C106.079 20.576 106.519 20.368 106.887 19.952C107.271 19.536 107.527 18.936 107.655 18.152C107.159 17.816 106.775 17.376 106.503 16.832C106.247 16.288 106.119 15.712 106.119 15.104C106.119 14.848 106.143 14.592 106.191 14.336H106.071C105.431 14.336 104.895 14.648 104.463 15.272C104.047 15.88 103.839 16.744 103.839 17.864C103.839 18.744 104.007 19.416 104.343 19.88C104.695 20.344 105.103 20.576 105.567 20.576ZM121.123 17.648C121.331 17.648 121.491 17.744 121.603 17.936C121.731 18.128 121.795 18.392 121.795 18.728C121.795 19.368 121.643 19.864 121.339 20.216C120.651 21.064 119.899 21.76 119.083 22.304C118.283 22.848 117.371 23.12 116.347 23.12C114.939 23.12 113.891 22.48 113.203 21.2C112.531 19.92 112.195 18.264 112.195 16.232C112.195 14.28 112.443 12.056 112.939 9.56C113.451 7.064 114.195 4.92 115.171 3.128C116.163 1.336 117.339 0.439999 118.699 0.439999C119.467 0.439999 120.067 0.799999 120.499 1.52C120.947 2.224 121.171 3.24 121.171 4.568C121.171 6.472 120.643 8.68 119.587 11.192C118.531 13.704 117.099 16.192 115.291 18.656C115.403 19.312 115.587 19.784 115.843 20.072C116.099 20.344 116.435 20.48 116.851 20.48C117.507 20.48 118.083 20.296 118.579 19.928C119.075 19.544 119.707 18.896 120.475 17.984C120.667 17.76 120.883 17.648 121.123 17.648ZM118.171 2.816C117.803 2.816 117.387 3.48 116.923 4.808C116.459 6.136 116.051 7.784 115.699 9.752C115.347 11.72 115.155 13.608 115.123 15.416C116.259 13.544 117.163 11.672 117.835 9.8C118.507 7.912 118.843 6.192 118.843 4.64C118.843 3.424 118.619 2.816 118.171 2.816ZM122.999 10.232C122.327 10.232 121.823 10.08 121.487 9.776C121.151 9.456 120.983 9.016 120.983 8.456C120.983 7.896 121.199 7.432 121.631 7.064C122.079 6.68 122.631 6.488 123.287 6.488C123.879 6.488 124.359 6.632 124.727 6.92C125.095 7.208 125.279 7.616 125.279 8.144C125.279 8.784 125.071 9.296 124.655 9.68C124.239 10.048 123.687 10.232 122.999 10.232ZM122.807 23.12C121.767 23.12 121.007 22.752 120.527 22.016C120.063 21.28 119.831 20.304 119.831 19.088C119.831 18.368 119.919 17.448 120.095 16.328C120.287 15.192 120.527 14.136 120.815 13.16C120.959 12.648 121.151 12.296 121.391 12.104C121.631 11.912 122.015 11.816 122.543 11.816C123.359 11.816 123.767 12.088 123.767 12.632C123.767 13.032 123.615 13.96 123.311 15.416C122.927 17.176 122.735 18.368 122.735 18.992C122.735 19.472 122.799 19.84 122.927 20.096C123.055 20.352 123.271 20.48 123.575 20.48C123.863 20.48 124.223 20.28 124.655 19.88C125.087 19.48 125.663 18.848 126.383 17.984C126.575 17.76 126.791 17.648 127.031 17.648C127.239 17.648 127.399 17.744 127.511 17.936C127.639 18.128 127.703 18.392 127.703 18.728C127.703 19.368 127.551 19.864 127.247 20.216C125.663 22.152 124.183 23.12 122.807 23.12ZM129.817 23.12C128.873 23.12 128.065 22.888 127.393 22.424C126.737 21.944 126.241 21.32 125.905 20.552C125.569 19.784 125.401 18.96 125.401 18.08C125.401 16.864 125.625 15.784 126.073 14.84C126.537 13.88 127.161 13.136 127.945 12.608C128.729 12.064 129.609 11.792 130.585 11.792C131.529 11.792 132.337 12.032 133.009 12.512C133.681 12.976 134.185 13.592 134.521 14.36C134.857 15.128 135.025 15.952 135.025 16.832C135.025 18.048 134.793 19.136 134.329 20.096C133.865 21.04 133.233 21.784 132.433 22.328C131.649 22.856 130.777 23.12 129.817 23.12ZM130.081 20.528C130.625 20.528 131.081 20.232 131.449 19.64C131.833 19.048 132.025 18.184 132.025 17.048C132.025 16.168 131.865 15.504 131.545 15.056C131.225 14.608 130.841 14.384 130.393 14.384C129.817 14.384 129.337 14.68 128.953 15.272C128.585 15.848 128.401 16.712 128.401 17.864C128.401 18.776 128.561 19.448 128.881 19.88C129.201 20.312 129.601 20.528 130.081 20.528Z"
          fill="#FF9C1A"
        />
      </svg>